<svg xmlns="http://www.w3.org/2000/svg" viewBox="0 0 1000 600" fill="none"><style>.line{stroke:#c3ccd5;stroke-width:2;stroke-linecap:round;stroke-linejoin:round}.paper{fill:#fff;stroke:#c3ccd5;stroke-width:2}.label{font:12px sans-serif;letter-spacing:3px;fill:#85919e}</style><rect width="1000" height="600" fill="#f3f5f7"/><path d="M0 350H1000M0 510H1000" class="line"/><path d="M80 350v250m840-250v250" stroke="#e4e9ee" stroke-width="2"/><text x="920" y="85" text-anchor="end" class="label">04 / OSKOLKI</text><rect x="130" y="275" width="170" height="23" rx="3" fill="#fff" class="line"/><path d="M142 298v52m146-52v52" class="line"/><rect x="175" y="210" width="70" height="49" rx="3" fill="#e2e9ef" class="line"/><path d="M210 260v15" class="line"/><rect x="420" y="275" width="170" height="23" rx="3" fill="#fff" class="line"/><path d="M432 298v52m146-52v52" class="line"/><rect x="465" y="210" width="70" height="49" rx="3" fill="#e2e9ef" class="line"/><path d="M500 260v15" class="line"/><rect x="710" y="275" width="170" height="23" rx="3" fill="#fff" class="line"/><path d="M722 298v52m146-52v52" class="line"/><rect x="755" y="210" width="70" height="49" rx="3" fill="#e2e9ef" class="line"/><path d="M790 260v15" class="line"/></svg>