<svg xmlns="http://www.w3.org/2000/svg" viewBox="0 0 1000 600" fill="none"><style>.line{stroke:#c3ccd5;stroke-width:2;stroke-linecap:round;stroke-linejoin:round}.paper{fill:#fff;stroke:#c3ccd5;stroke-width:2}.label{font:12px sans-serif;letter-spacing:3px;fill:#85919e}</style><rect width="1000" height="600" fill="#f3f5f7"/><path d="M0 350H1000M0 510H1000" class="line"/><path d="M80 350v250m840-250v250" stroke="#e4e9ee" stroke-width="2"/><text x="920" y="85" text-anchor="end" class="label">05 / OSKOLKI</text><rect x="90" y="180" width="230" height="170" rx="3" fill="#e9edf1" class="line"/><rect x="99" y="189" width="212" height="45" rx="3" fill="#fff" class="line"/><path d="M191.0 210h28" class="line"/><rect x="99" y="243" width="212" height="45" rx="3" fill="#fff" class="line"/><path d="M191.0 264h28" class="line"/><rect x="99" y="297" width="212" height="45" rx="3" fill="#fff" class="line"/><path d="M191.0 318h28" class="line"/><rect x="700" y="180" width="210" height="170" rx="3" fill="#e9edf1" class="line"/><rect x="709" y="189" width="192" height="45" rx="3" fill="#fff" class="line"/><path d="M791.0 210h28" class="line"/><rect x="709" y="243" width="192" height="45" rx="3" fill="#fff" class="line"/><path d="M791.0 264h28" class="line"/><rect x="709" y="297" width="192" height="45" rx="3" fill="#fff" class="line"/><path d="M791.0 318h28" class="line"/><rect x="400" y="240" width="200" height="40" rx="3" fill="#dfe8e8" class="line"/><path d="M415 280v70m170-70v70" class="line"/><rect x="450" y="130" width="100" height="65" rx="3" fill="#fff" class="line"/></svg>